<?xml version="1.0" encoding="utf-8"?>
<!-- Generator: Adobe Illustrator 25.4.1, SVG Export Plug-In . SVG Version: 6.00 Build 0)  -->
<svg version="1.1" id="Layer_1" xmlns="http://www.w3.org/2000/svg" xmlns:xlink="http://www.w3.org/1999/xlink" x="0px" y="0px"
	 viewBox="0 0 1000 1000" style="enable-background:new 0 0 1000 1000;" xml:space="preserve">
<style type="text/css">
	.st0{fill:#747575;}
	.st1{fill:#909193;}
</style>
<g>
	<path class="st0" d="M723.3,624.5c1.9,2.8,5,4.8,8.5,5.7l26.9,6.5c7.3,1.7,14.5-2.1,16-8.6l31.5-131.4
		c40.7-169.8-84.4-351.1-268.5-395.3C484.6,88.7,434.4,99,385,106.8c-9.2,1.5-13.4,10.8-8.3,18.1l83.2,120c2.4,3.5,6.5,5.8,10.9,6.1
		c11.5,0.8,23.2,2.6,35,5.5c90.9,21.8,155.2,103.7,142.5,189c-1,7-0.1,5.1-1.1,22.2l5.6,14"/>
	<rect x="173.1" y="485.3" class="st0" width="157.3" height="446.7"/>
	<path class="st1" d="M391,246.4c50.7,3.7,96.8,21,134.6,48.5c7.7,5.6,18.2,4.8,24.9-1.9l141.8-141.8c7.9-7.9,7.4-20.8-1-28.1
		C605.7,48.7,494.2,3.7,370.4,3.7H156.3c-10.6,0-19.2,8.6-19.2,19.2V660c0,17.1,20.7,25.7,32.8,13.6l194.9-194.9
		c3.6-3.6,5.6-8.5,5.6-13.6V265.6C370.4,254.4,379.9,245.6,391,246.4z"/>
	<path class="st1" d="M784.5,282.6L630.4,436.7c-4.5,4.5-6.5,10.8-5.3,17c3,16.1,4.5,32.8,4.5,50c0,132.3-102.4,247.8-238.6,258.5
		c-11.1,0.9-20.7-8-20.7-19.2l0,0c0-17.1-20.7-25.7-32.8-13.6L142.7,924.3c-3.6,3.6-5.6,8.5-5.6,13.6v39.2
		c0,10.6,8.6,19.2,19.2,19.2h214.1c276.7,0,492.5-224.6,492.5-492.5c0-77.2-17-150.3-47.4-215.7C809.8,276,793.9,273.2,784.5,282.6z
		"/>
	<path class="st1" d="M169.9,821.1l589.5-589.5c6.8-6.8,7.5-17.5,1.8-25.1c-3.7-4.9-7.5-9.7-11.3-14.4c-7.2-8.8-20.4-9.5-28.5-1.4
		L142.7,769.3c-3.6,3.6-5.6,8.5-5.6,13.6v24.7C137.1,824.7,157.8,833.2,169.9,821.1z"/>
</g>
</svg>
