<?xml version="1.0" encoding="utf-8"?>
<!-- Generator: Adobe Illustrator 25.4.1, SVG Export Plug-In . SVG Version: 6.00 Build 0)  -->
<svg version="1.1" id="Layer_1" xmlns="http://www.w3.org/2000/svg" xmlns:xlink="http://www.w3.org/1999/xlink" x="0px" y="0px"
	 viewBox="0 0 1000 1000" style="enable-background:new 0 0 1000 1000;" xml:space="preserve">
<style type="text/css">
	.st0{fill:#C1272D;}
</style>
<g>
	<g>
		<path d="M105.6,30.89c0-15,12.16-27.15,27.15-27.15h206.1c276.65,0,492.53,224.57,492.53,500
			c0,267.96-215.88,492.53-492.53,492.53h-206.1c-15,0-27.15-12.16-27.15-27.15V30.89z M598.12,503.74
			c0-136.26-97.76-242.39-229.3-256.47c-16.02-1.71-29.98,10.9-29.98,27.02v460c0,16.19,14.09,28.85,30.18,26.99
			C500.46,746.1,598.12,632.98,598.12,503.74z"/>
	</g>
	<g>
		<path class="st0" d="M422.54,246.43c50.72,3.71,96.75,21.01,134.55,48.46c7.66,5.56,18.22,4.79,24.91-1.91l141.83-141.83
			c7.89-7.89,7.39-20.8-1.03-28.12C637.25,48.69,525.65,3.73,401.88,3.73H187.81c-10.6,0-19.2,8.59-19.2,19.2v637.1
			c0,17.1,20.68,25.67,32.77,13.57l194.87-194.87c3.6-3.6,5.62-8.48,5.62-13.57V265.58C401.88,254.4,411.39,245.61,422.54,246.43z"
			/>
		<path class="st0" d="M816,282.59l-154.1,154.1c-4.46,4.46-6.45,10.83-5.3,17.03c2.99,16.11,4.55,32.83,4.55,50.03
			c0,132.34-102.39,247.77-238.59,258.46c-11.15,0.88-20.68-7.96-20.68-19.15v0c0-17.1-20.68-25.67-32.77-13.57L174.24,924.35
			c-3.6,3.6-5.62,8.48-5.62,13.57v39.15c0,10.6,8.59,19.2,19.2,19.2h214.06c276.65,0,492.53-224.57,492.53-492.53
			c0-77.16-16.95-150.33-47.43-215.69C841.35,275.97,825.42,273.17,816,282.59z"/>
		<path class="st0" d="M201.39,819.12L790.91,229.6c6.76-6.76,7.54-17.5,1.77-25.13c-3.68-4.86-7.45-9.66-11.3-14.38
			c-7.19-8.81-20.42-9.49-28.47-1.45L174.24,767.32c-3.6,3.6-5.62,8.48-5.62,13.57v24.66C168.62,822.65,189.29,831.22,201.39,819.12
			z"/>
	</g>
</g>
</svg>
