<?xml version="1.0" encoding="utf-8"?>
<!-- Generator: Adobe Illustrator 25.4.1, SVG Export Plug-In . SVG Version: 6.00 Build 0)  -->
<svg version="1.1" id="Layer_1" xmlns="http://www.w3.org/2000/svg" xmlns:xlink="http://www.w3.org/1999/xlink" x="0px" y="0px"
	 viewBox="0 0 1000 1000" style="enable-background:new 0 0 1000 1000;" xml:space="preserve">
<style type="text/css">
	.st0{fill:#191E29;}
	.st1{fill:#01C38D;}
</style>
<g>
	<path class="st0" d="M202.9,30.9c0-15,12.2-27.2,27.1-27.2h206.1c276.6,0,492.5,224.6,492.5,500c0,268-215.9,492.5-492.5,492.5
		H230.1c-15,0-27.1-12.2-27.1-27.2V30.9z M695.5,503.7c0-136.3-97.8-242.4-229.3-256.5c-16-1.7-30,10.9-30,27v460
		c0,16.2,14.1,28.8,30.2,27C597.8,746.1,695.5,633,695.5,503.7z"/>
</g>
<path class="st1" d="M488.5,246.4c50.7,3.7,96.8,21,134.6,48.5c7.7,5.6,18.2,4.8,24.9-1.9l141.8-141.8c7.9-7.9,7.4-20.8-1-28.1
	C703.2,48.7,591.7,3.7,467.9,3.7H253.8c-10.6,0-19.2,8.6-19.2,19.2V660c0,17.1,20.7,25.7,32.8,13.6l194.9-194.9
	c3.6-3.6,5.6-8.5,5.6-13.6V265.6C467.9,254.4,477.4,245.6,488.5,246.4z"/>
<path class="st1" d="M882,282.6L727.9,436.7c-4.5,4.5-6.5,10.8-5.3,17c3,16.1,4.5,32.8,4.5,50c0,132.3-102.4,247.8-238.6,258.5
	c-11.1,0.9-20.7-8-20.7-19.2l0,0c0-17.1-20.7-25.7-32.8-13.6L240.2,924.3c-3.6,3.6-5.6,8.5-5.6,13.6v39.2c0,10.6,8.6,19.2,19.2,19.2
	h214.1c276.7,0,492.5-224.6,492.5-492.5c0-77.2-17-150.3-47.4-215.7C907.3,276,891.4,273.2,882,282.6z"/>
<path class="st1" d="M267.4,819.1l589.5-589.5c6.8-6.8,7.5-17.5,1.8-25.1c-3.7-4.9-7.5-9.7-11.3-14.4c-7.2-8.8-20.4-9.5-28.5-1.4
	L240.2,767.3c-3.6,3.6-5.6,8.5-5.6,13.6v24.7C234.6,822.7,255.3,831.2,267.4,819.1z"/>
</svg>
